Mickey.Mouse.Clubhouse.Mickeys.Message.From.Mars 2010 DVDRip Xvid LKRG

Board a rocket ship and blast off with Mickey, Donald, Goofy and all your pals on an incredible adventure! Colorful, flashing lights seen through the Clubhouse telescope inspire our heroes to embark on a remarkable voyage into outer space. Help them pick the right Mouseketools, so they can journey past the stars, to the moon and all the way to the Red Planet! Full of laughter, excitement and amazing discoveries, Mickey's Message From Mars is out-of-this-world fun!./b]

Format;AVI

File Size:890mb


Video
ID : 0
Format : MPEG-4 Visual
Format profile : Advanced Simple@L5
Format settings, BVOP : Yes
Format settings, QPel : No
Format settings, GMC : No warppoints
Format settings, Matrix : Custom
Codec ID : XVID
Codec ID/Hint : XviD
Duration : 1h 9mn
Bit rate : 1 121 Kbps
Width : 640 pixels
Height : 368 pixels
Display aspect ratio : 16:9
Frame rate : 25.000 fps
Color space : YUV
Chroma subsampling : 4:2:0
Bit depth : 8 bits
Scan type : Progressive
Bits/(Pixel*Frame) : 0.190
Stream size : 556 MiB (85%)
Writing library : XviD 1.2.1 (UTC 2008-12-04)

Audio
ID : 1
Format : AC-3
Format/Info : Audio Coding 3
Format profile : Dolby Digital
Mode extension : CM (complete main)
Codec ID : 2000
Duration : 1h 9mn
Bit rate mode : Constant
Bit rate : 192 Kbps
Channel(s) : 2 channels
Channel positions : Front: L R
Sampling rate : 48.0 KHz
Bit depth : 16 bits
Stream size : 95.2 MiB (15%)
Alignment : Aligned on interleaves
Interleave, duration : 480 ms (12.00 video frames)
Interleave, preload duration : 960 ms


Duration:1:09

Release Date:2011

Language:English
 
http://shotpix.com/images/64512963055764867837.png
 
http://shotpix.com/images/25067627858798593380.png
 
http://shotpix.com/images/04913315173899468729.png
 
http://shotpix.com/images/95560189654362682352.png
 
http://shotpix.com/images/74371547984351752368.png
 
http://shotpix.com/images/20940280333658402010.png